<mxfile host="app.diagrams.net" modified="2024-04-03T16:10:21.751Z" agent="Mozilla/5.0 (X11; Ubuntu; Linux x86_64; rv:123.0) Gecko/20100101 Firefox/123.0" etag="XpvH-nb3AhQDla5ssG1N" version="24.0.2" type="github">
  <diagram name="Page-1" id="HP-3ndHURw2fWxAZ14CL">
    <mxGraphModel dx="427" dy="789" grid="1" gridSize="10" guides="1" tooltips="1" connect="1" arrows="1" fold="1" page="1" pageScale="1" pageWidth="850" pageHeight="1100" math="0" shadow="0">
      <root>
        <mxCell id="0" />
        <mxCell id="1" parent="0" />
        <mxCell id="Q8W4HqNzeMYByXNEdLaC-9" style="edgeStyle=orthogonalEdgeStyle;rounded=0;orthogonalLoop=1;jettySize=auto;html=1;exitX=0.5;exitY=1;exitDx=0;exitDy=0;entryX=0.5;entryY=0;entryDx=0;entryDy=0;" edge="1" parent="1" source="Q8W4HqNzeMYByXNEdLaC-1" target="Q8W4HqNzeMYByXNEdLaC-6">
          <mxGeometry relative="1" as="geometry" />
        </mxCell>
        <mxCell id="Q8W4HqNzeMYByXNEdLaC-1" value="Find max value of high_price and min value of low_price for the next 11 candles start from the candle assigned to True " style="rounded=0;whiteSpace=wrap;html=1;" vertex="1" parent="1">
          <mxGeometry x="195" y="510" width="240" height="80" as="geometry" />
        </mxCell>
        <mxCell id="Q8W4HqNzeMYByXNEdLaC-2" value="&lt;div&gt;Dataframe&lt;/div&gt;&lt;div&gt;slicing window&lt;/div&gt;&lt;div&gt;distance&lt;br&gt;&lt;/div&gt;&lt;div&gt;&amp;nbsp;field_for_supports&lt;/div&gt;&lt;div&gt;field_for_resistance&lt;/div&gt;&lt;div&gt;number_candles_to_process&lt;/div&gt;&lt;div&gt;&lt;br&gt;&lt;/div&gt;" style="shape=parallelogram;perimeter=parallelogramPerimeter;whiteSpace=wrap;html=1;fixedSize=1;fillColor=#dae8fc;strokeColor=#6c8ebf;" vertex="1" parent="1">
          <mxGeometry x="160" y="60" width="310" height="160" as="geometry" />
        </mxCell>
        <mxCell id="Q8W4HqNzeMYByXNEdLaC-10" style="edgeStyle=orthogonalEdgeStyle;rounded=0;orthogonalLoop=1;jettySize=auto;html=1;exitX=0.5;exitY=1;exitDx=0;exitDy=0;entryX=0.5;entryY=0;entryDx=0;entryDy=0;" edge="1" parent="1" source="Q8W4HqNzeMYByXNEdLaC-6" target="Q8W4HqNzeMYByXNEdLaC-7">
          <mxGeometry relative="1" as="geometry" />
        </mxCell>
        <mxCell id="Q8W4HqNzeMYByXNEdLaC-6" value="Trong từng đoạn 12 nến đó -&amp;gt; Tìm ra điểm max và min " style="rounded=0;whiteSpace=wrap;html=1;" vertex="1" parent="1">
          <mxGeometry x="245" y="630" width="140" height="70" as="geometry" />
        </mxCell>
        <mxCell id="Q8W4HqNzeMYByXNEdLaC-7" value="&lt;div&gt;Áp dụng trendline_ver1.py để tìm lower&amp;amp;upper trendline&lt;/div&gt;&lt;div&gt;(cửa sổ trượt trên các điểm max, min tìm được để vẽ trendline&lt;br&gt;&lt;/div&gt;" style="rounded=0;whiteSpace=wrap;html=1;" vertex="1" parent="1">
          <mxGeometry x="212.5" y="740" width="205" height="100" as="geometry" />
        </mxCell>
        <mxCell id="Q8W4HqNzeMYByXNEdLaC-8" value="" style="endArrow=classic;html=1;rounded=0;exitX=0.5;exitY=1;exitDx=0;exitDy=0;entryX=0.5;entryY=0;entryDx=0;entryDy=0;" edge="1" parent="1" source="Q8W4HqNzeMYByXNEdLaC-2" target="Q8W4HqNzeMYByXNEdLaC-11">
          <mxGeometry width="50" height="50" relative="1" as="geometry">
            <mxPoint x="340" y="380" as="sourcePoint" />
            <mxPoint x="390" y="330" as="targetPoint" />
          </mxGeometry>
        </mxCell>
        <mxCell id="Q8W4HqNzeMYByXNEdLaC-11" value="&lt;div&gt;Filter all the candles with date format &quot;Y-M-D x:00:00+00:00&quot;&lt;/div&gt;&lt;div&gt;-&amp;gt; Assign it to True&lt;br&gt;&lt;/div&gt;" style="rounded=0;whiteSpace=wrap;html=1;" vertex="1" parent="1">
          <mxGeometry x="230" y="260" width="170" height="80" as="geometry" />
        </mxCell>
        <mxCell id="Q8W4HqNzeMYByXNEdLaC-12" value="" style="endArrow=classic;html=1;rounded=0;entryX=0.5;entryY=0;entryDx=0;entryDy=0;exitX=0.5;exitY=1;exitDx=0;exitDy=0;" edge="1" parent="1" source="Q8W4HqNzeMYByXNEdLaC-11" target="Q8W4HqNzeMYByXNEdLaC-13">
          <mxGeometry width="50" height="50" relative="1" as="geometry">
            <mxPoint x="320" y="380" as="sourcePoint" />
            <mxPoint x="370" y="330" as="targetPoint" />
          </mxGeometry>
        </mxCell>
        <mxCell id="Q8W4HqNzeMYByXNEdLaC-13" value="&lt;div&gt;Dùng dataframe.loc &lt;br&gt;&lt;/div&gt;&lt;div&gt;-&amp;gt; lọc ra các nến start mà có đủ 11 nến ở sau đó&lt;br&gt;&lt;/div&gt;" style="rounded=0;whiteSpace=wrap;html=1;" vertex="1" parent="1">
          <mxGeometry x="257.5" y="390" width="115" height="70" as="geometry" />
        </mxCell>
        <mxCell id="Q8W4HqNzeMYByXNEdLaC-14" value="" style="endArrow=classic;html=1;rounded=0;" edge="1" parent="1" target="Q8W4HqNzeMYByXNEdLaC-1">
          <mxGeometry width="50" height="50" relative="1" as="geometry">
            <mxPoint x="270" y="590" as="sourcePoint" />
            <mxPoint x="320" y="540" as="targetPoint" />
          </mxGeometry>
        </mxCell>
        <mxCell id="Q8W4HqNzeMYByXNEdLaC-15" value="" style="endArrow=classic;html=1;rounded=0;entryX=0.5;entryY=0;entryDx=0;entryDy=0;exitX=0.5;exitY=1;exitDx=0;exitDy=0;" edge="1" parent="1" source="Q8W4HqNzeMYByXNEdLaC-13" target="Q8W4HqNzeMYByXNEdLaC-1">
          <mxGeometry width="50" height="50" relative="1" as="geometry">
            <mxPoint x="162.5" y="490" as="sourcePoint" />
            <mxPoint x="212.5" y="440" as="targetPoint" />
          </mxGeometry>
        </mxCell>
        <mxCell id="Q8W4HqNzeMYByXNEdLaC-17" value="" style="endArrow=classic;html=1;rounded=0;entryX=0;entryY=0.5;entryDx=0;entryDy=0;" edge="1" parent="1" target="Q8W4HqNzeMYByXNEdLaC-13">
          <mxGeometry width="50" height="50" relative="1" as="geometry">
            <mxPoint x="180" y="425" as="sourcePoint" />
            <mxPoint x="210" y="410" as="targetPoint" />
          </mxGeometry>
        </mxCell>
        <mxCell id="Q8W4HqNzeMYByXNEdLaC-18" value="Thực hiện trong ngày mai" style="rounded=0;whiteSpace=wrap;html=1;" vertex="1" parent="1">
          <mxGeometry x="60" y="395" width="120" height="60" as="geometry" />
        </mxCell>
      </root>
    </mxGraphModel>
  </diagram>
</mxfile>
